<svg xmlns="http://www.w3.org/2000/svg" version="1.1" viewBox="-10 0 899 900" width="32" height="32"><path fill="rgba(213, 38, 52, 1)" d="M527 428v20v21.5v21.5v10v11v20q0 12 -1 19v17v5.5t-0.5 5.5t-0.5 5v26l-1 23q-1 7 -4 14t-8.5 12t-13.5 8q-7 3 -15 3h-14h-15h-17h-17h-14h-15q-7 0 -15 -3q-7 -3 -12.5 -8t-8.5 -12q-4 -7 -4 -14q0 -9 -1 -23q0 -8 -1 -26v-6v-10q0 -8 -1 -17v-9.5v-9.5v-20
q0 -7 -1 -21v-21.5v-21.5q1 -14 1 -20v-21v-18q1 -10 1 -18v-9.5v-6.5q1 -10 1 -26l1 -23q0 -7 3.5 -13.5t9 -12t12.5 -8.5t15 -3h15h14h17h17h15h14q8 0 15 3t13 8.5t9 11.5q3 7 4 14q0 9 1 23v26q0 2 0.5 5t0.5 5.5v5.5v18q0 2 0.5 8.5t0.5 9.5v21zM873 380q7 51 4.5 96
t-9.5 76l-7 30q-8 -7 -38 -7q-43 0 -160 104l-215 187l-7 6l-7 -6q-115 -99 -215 -187q-117 -104 -160 -104q-14 0 -23 2t-12 3l-3 2q-1 -4 -3 -11.5t-6 -30.5t-6.5 -46t-2 -54.5t5.5 -59.5q16 -97 37 -140q1 -2 3.5 -1.5t2.5 3.5q-3 25 16 54.5t54 29.5q29 0 93 -46.5
t111 -98.5q10 -11 25.5 -28.5t45.5 -60.5t40 -72q1 -3 4 -3t4 3q10 29 37.5 69.5t50.5 65.5l23 26q47 52 111 98.5t93 46.5q35 0 54 -29.5t16 -54.5q0 -3 2.5 -3.5t3.5 1.5q21 43 37 140zM623 623q22 -18 46.5 -38.5t36.5 -30.5t26 -22t19.5 -17.5t10.5 -13.5t6.5 -14.5
t1.5 -14.5q0 -11 -7.5 -24.5t-26.5 -32.5t-31 -30t-43 -37.5t-39 -33.5q-113 -98 -182 -98t-182 98q-8 7 -39 33.5t-43 37.5t-31 30t-26.5 32.5t-7.5 24.5q0 8 1 14.5t6.5 14.5t11 13.5t19.5 17.5t25.5 22t36.5 30.5t46 38.5q25 20 40 31.5t41.5 30.5t50.5 28t44 9h14
q20 0 44 -9t50.5 -28t41.5 -30.5t39 -31.5z"></path></svg>