<svg xmlns="http://www.w3.org/2000/svg" version="1.1"  viewBox="-40 30 1130 850" width="24" height="24"><path fill="rgba(62, 99, 174, 1)" stroke="black" stroke-width="80" stroke-linejoin="round" paint-order="stroke" d="M573 613h-15h-16h-17h-18h-15h-15q-8 0 -16 -3q-7 -4 -13 -9t-9 -11.5t-4 -15.5q0 -9 -1 -23q0 -4 -0.5 -14t-0.5 -13v-17q-1 -5 -1 -18v-20v-10v-11v-21v-22v-22v-22v-21v-9.5v-10v-9.5t0.5 -9t0.5 -8.5v-7.5q1 -15 1 -27l1 -24q0 -7 4 -15q3 -6 9 -12q6 -5 13 -8
q8 -3 16 -4h15h15h18h17h16h15q8 0 16 4q7 3 13 8t9 12t4 15q0 9 1 24q0 4 0.5 13.5t0.5 13.5v16q1 6 1 18v20v10v11v11v11v22v22v21v21v10.5t-0.5 9.5t-0.5 9v9v8.5v8.5q-1 15 -1 27l-1 23q0 7 -4 15q-3 7 -9 12q-6 6 -13 9q-8 3 -16 3zM945 360l-1 1q3 1 8 3q7 4 18 9
q7 4 11 5.5t12 5.5q2 0 6 2l6 3q4 2 12 5q16 7 18 8l8 3q-3 2 -8 4q-6 2 -18 8q-9 3 -12 5q-1 0 -5.5 2t-6.5 3t-12 5l-6 3l-6 3t-8.5 4t-9.5 4l-7 4q-5 8 -11 17q-8 11 -16 20q-5 4 -13 12q-3 3 -15 14q-1 1 -8 7.5t-11 10.5q-2 2 -6 5.5t-6 5.5l-4.5 4.5t-7.5 6.5
q-2 2 -6.5 6t-6.5 7q-10 8 -15 12.5l-15 13.5l-6 5.5t-9 7.5q-3 3 -8.5 7.5t-8.5 6.5q-10 9 -16 14q-10 8 -17 13q-2 2 -8 6.5t-9 7.5q-3 2 -8.5 6t-8.5 7q-6 4 -16.5 12t-15.5 12q-3 1 -8 5t-8 6q-1 1 -6 4.5t-8 5.5q-2 1 -6.5 4l-7.5 5q-14 10 -23 16q-4 2 -10 6l-9 6
l-15 10q-1 3 -4 7q-2 4 -9 19q-3 7 -5 11t-6 13l-3 6t-2.5 6t-2.5 5.5t-3 5.5q-1 3 -4 9t-4 9l-3 7q-2 -3 -4 -7q0 -2 -3 -8l-5 -10q-1 -2 -2.5 -5.5t-2.5 -5.5q-2 -4 -6 -12.5t-6 -12.5q-1 -2 -2.5 -5.5t-2.5 -5.5q-2 -3 -5 -9.5t-4 -9.5l-4 -7q-5 -4 -15 -10
q-11 -7 -18 -12q-2 -1 -10.5 -7t-13.5 -9q-2 -2 -7 -5t-7 -4q-8 -6 -14 -10q-2 -2 -7.5 -5.5t-7.5 -5.5t-7.5 -6t-8.5 -6q-11 -8 -17 -12q-7 -6 -17 -13q-3 -2 -8.5 -6.5t-8.5 -7.5q-4 -3 -17 -13q-2 -3 -7.5 -7.5t-8.5 -6.5q-14 -11 -16 -14q-1 0 -16 -13q-2 -2 -7 -6.5
t-8 -7.5q-5 -4 -14 -12q-3 -3 -7.5 -7t-6.5 -5.5t-6 -5.5l-6 -6q-8 -8 -12 -11q-12 -11 -19 -18l-7.5 -7.5t-7.5 -6.5l-12 -12q-7 -8 -16 -20q-7 -9 -12 -17q-3 -1 -7 -4q-3 -1 -9 -4t-9 -4q-8 -4 -11.5 -5.5t-12 -5.5t-12.5 -5q-2 -1 -5.5 -3t-5.5 -2q-4 -2 -10.5 -4.5
t-8.5 -3.5l-8 -4q3 -1 8 -3q11 -5 18 -8q9 -4 12 -5q1 -1 5.5 -2.5t6.5 -2.5l12 -6q2 -1 6 -2.5t6 -2.5q2 -2 8.5 -4.5t9.5 -4.5l7 -3q4 -7 11 -17.5t16 -20.5q6 -5 15 -13q3 -4 16 -16l4.5 -4.5l5.5 -5.5q6 -4 12 -10l12 -12q2 -1 6.5 -5.5l6.5 -6.5q3 -2 7.5 -6t7.5 -6
q5 -5 15 -14l6 -5.5t9 -8.5q11 -8 17 -13q0 -1 16 -14q11 -9 17 -13q2 -2 7.5 -6.5t8.5 -6.5q13 -11 16 -13q6 -4 16 -11q5 -4 15 -11q11 -9 13 -10q7 -4 13 -8q10 -8 20 -14l18 -13q6 -3 14 -8q6 -3 15 -6q3 -2 15 -5q7 -3 16 -4q5 -1 16 -2q5 -1 17 -1h17q13 2 16 3
q11 2 16 3.5l15 4.5q2 1 15 7q5 2 14 8q6 5 18 12q3 2 10 7t10 7q6 4 13 9q9 6 13 10q1 0 6.5 4t8.5 6q6 5 15 12l17 12q2 3 8 7t8 6q11 9 17 14q3 2 9.5 7.5l6.5 5.5q14 12 17 14q7 7 15 14q3 2 8.5 7t7.5 6q9 8 14 13q2 2 6.5 6t6.5 6q2 1 4.5 3.5l4.5 4.5l4 4q6 5 11 10
l10 10q3 2 8.5 7.5t8.5 7.5l14 14q8 8 16 20q6 8 11 17zM877 420q7 -8 7 -15q0 -8 -7 -15q-6 -5 -15 -14l-16 -16q-6 -5 -10 -9q-3 -3 -12 -11l-6 -6l-6 -6q-2 -1 -7 -5.5t-7 -6.5q-5 -5 -15 -13q-3 -3 -8 -7.5t-8 -6.5q-2 -2 -7.5 -7t-8.5 -7q-5 -5 -17 -15q-8 -7 -17 -14
q-3 -2 -9 -6.5t-9 -7.5q-5 -5 -16.5 -14t-17.5 -13q-10 -8 -16 -12q-2 -1 -7.5 -5t-7.5 -6q-2 -1 -15 -10q-9 -6 -13 -9q-6 -4 -21 -15l-19 -12q-7 -5 -18 -8t-23 -3t-22 3q-11 3 -18 8q-8 4 -19 12q-15 11 -22 15q-4 3 -13 9q-12 9 -14 10q-9 6 -16 11q-1 1 -7 5.5t-9 6.5
q-5 5 -17 13q-2 2 -7.5 7t-9.5 7q-6 5 -17 14q-17 14 -18 14q-11 10 -16 15q-11 9 -17 14q-8 7 -15 14q-6 5 -15 13q-5 4 -14 12l-5.5 5.5t-7.5 6.5q-4 5 -11 11q-2 1 -5.5 4.5l-4.5 4.5l-8 8t-9 8l-14 14q-8 7 -8 15t8 15q5 5 14 13q6 6 17 16l10 10q3 3 11 10l5.5 5.5
t7.5 6.5q5 4 14 13q5 4 15 13q2 2 7.5 6.5t7.5 7.5q3 2 8.5 6.5t8.5 7.5q5 4 16 14q17 13 18 14q2 3 8 7.5t9 6.5q6 5 17.5 14t16.5 13q11 8 16 12q2 2 7.5 5.5t8.5 5.5q2 1 14 10q9 7 13 10q7 4 22 14l19 13q8 5 18 8q12 2 22.5 2t21.5 -2q10 -3 19 -8q7 -5 19 -13l21 -14
q4 -3 13 -10q13 -9 15 -10q8 -6 15 -11q2 -1 7.5 -5.5t8.5 -6.5q6 -4 17 -13q2 -2 8 -6.5t9 -7.5q6 -4 18 -14q9 -7 17 -14q12 -10 17 -14q11 -10 16 -14l16 -14q6 -5 15 -13q5 -5 14 -13q0 -1 5 -5t7 -7q5 -4 12 -10q1 -2 4.5 -5.5t5.5 -4.5q2 -2 8 -7.5t8 -8.5z"></path></svg>