<svg xmlns="http://www.w3.org/2000/svg" version="1.1" viewBox="-40 0 1010 800" width="32" height="32"><path fill="rgba(229, 189, 56, 1)" stroke="black" stroke-width="90" stroke-linejoin="round" paint-order="stroke"  d="M895 221q39 82 31 169q-2 11 -3 16l-68 10l56 44q-24 81 -74 148l-58 -24l26 61q-61 63 -141 97l-51 -58l-2 77q-107 27 -213 5l-7 -86l-51 71q-89 -29 -161 -89l48 -93l-94 48q-66 -72 -98 -164l93 -66h-112q-17 -89 -3.5 -173.5t55.5 -159.5q89 40 195 143
q-8 50 -4 107l-61 65l80 18q11 29 29 54l-22 70l71 -16q23 20 48 33l12 66l50 -42q24 6 48 6q16 0 33 -2l45 40l12 -56q31 -14 57 -36l42 13l-10 -46q22 -30 34 -66l1 -1l40 -13l-33 -29q3 -38 -10 -74l21 -32l-38 -2q-14 -22 -35 -40l3 -34l-31 14q-16 -8 -32 -13
q-15 -5 -32 -7l-12 -27l-20 28q-26 4 -49 16l-30 -14l3 33q-23 21 -35 49l-22 4l14 18q-7 30 1 59l-13 14l21 5q10 20 26 35l-2 16l15 -6q14 9 28 14q5 2 10 3l8 16l10 -14q19 0 38 -8l16 9l-1 -17q14 -9 23 -22l19 -1l-10 -14q4 -7 5 -12q4 -11 4 -23l14 -9l-16 -9l-10 -23
l6 -20l-19 5q-12 -11 -27 -16l-6 -13l-7 10q-16 -1 -31 5l-11 -6v12q-14 10 -21 26l-11 3l8 8q-4 18 5 34l-5 8h15q4 6 16 9.5t21 1.5q-16 -2 -29 -19l-8 -1l3 -5q-5 -11 -3 -28l-4 -3l4 -1q7 -14 19 -23v-4l3 2q10 -4 32 -2l3 -4l1 5q17 3 27 16h5l-2 4q10 16 12 25l6 2
l-5 3q0 10 -5 23q-2 5 -6 14l3 4h-6q-10 13 -27 24v3l-3 -1q-15 6 -40 5l-3 4l-2 -4q-29 -7 -35 -17l-10 5l2 -8q-18 -13 -27 -37h-6l4 -5q-8 -27 1 -59l-4 -4h5q13 -31 41 -57l-1 -7l6 4q9 -7 29 -14.5t32 -8.5l4 -5l4 6q27 2 39 6q24 8 34 17l11 -4v11q22 15 44 50l12 1
l-7 10q16 34 13 87l13 11l-18 6q-11 31 -42 71l6 27l-22 -6q-25 23 -68 40l-6 30l-25 -22q-35 5 -86 -7l-35 27l-9 -44q-26 -11 -58 -39l-42 11l19 -50q-3 -3 -8.5 -11t-8.5 -12.5t-7.5 -11t-7.5 -13t-5 -12.5l-56 -13l51 -53q-7 -72 14 -127q13 -31 29.5 -54.5t45.5 -47.5
l23 21l-8 -37q64 -42 141 -44l18 35l15 -35q77 5 147 39l-3 44l34 -27q72 45 117 114l-33 40h55z"></path></svg>