<svg xmlns="http://www.w3.org/2000/svg" version="1.1" viewBox="-30 -35 876 930" width="32" height="32"><path fill="rgba(177, 161, 151, 1)" stroke="black" stroke-width="80" stroke-linejoin="round" paint-order="stroke" d="M816 542l-1 2v8q0 5 -1 15q-1 2 -1.5 7t-1.5 7q0 5 -2 14.5t-3 14.5q-1 4 -3 14q-2 9 -4 14q-1 5 -4 14q-1 2 -2.5 6t-2.5 6.5t-2.5 6.5t-2.5 6l-3 6l-3 6q-7 16 -11.5 23.5l-13.5 22.5q-7 11 -14 20q-5 7 -15 19q-9 11 -16 17q-11 10 -17 14q-6 5 -17 13q-9 6 -18 10
q-9 5 -18 9q-13 4 -18 5q-11 3 -18 3q-6 1 -16 2q-2 1 -8 1.5t-10 0.5q-3 1 -24 3q-2 0 -6.5 0.5t-6.5 0.5q-3 0 -8 0.5t-7 0.5q-3 0 -8 0.5t-8 0.5q-6 1 -17 2h-17q-12 1 -18 1q-6 1 -19 1h-18h-19q-6 -1 -18 -1h-18q-17 -1 -18 -1q-11 -1 -16 -1q-3 0 -8.5 -0.5t-7.5 -0.5
q-3 0 -8 -0.5t-7 -0.5q-3 -1 -7.5 -1t-6.5 -1q-20 -2 -24 -2.5t-10.5 -1t-7.5 -0.5l-16 -2q-8 -1 -18 -3q-7 -2 -18 -6q-8 -3 -18 -8q-5 -2 -18 -10q-8 -4 -17 -12q-10 -8 -17 -15q-10 -9 -16 -16q-6 -6 -16 -18q-6 -9 -14 -20q-7 -11 -13 -22q-3 -6 -7 -12l-6 -12
q-1 -4 -5 -12q-1 -2 -2.5 -6.5t-2.5 -6.5q-3 -6 -5 -13q0 -2 -1 -4.5l-2 -5t-1.5 -4.5t-2 -6.5t-1.5 -7.5l-4 -14q0 -2 -1 -7l-1.5 -7.5l-1.5 -7.5t-2 -8q-1 -5 -2 -15t-1 -16v-9q1 -1 2 -25q1 -3 1.5 -9.5t0.5 -8.5q1 -10 3 -22q3 -18 4 -25q0 -2 1 -6.5t1 -6.5q2 -9 3 -14
q2 -12 3 -14q1 -5 4 -15q3 -13 3.5 -15.5t2 -7.5t2.5 -8q3 -11 5 -16q2 -6 5 -17q1 -2 3 -8t3 -8.5t3 -8t3 -8.5q3 -8 7 -16q2 -3 4.5 -8.5t3.5 -8.5q2 -5 8 -16q1 -3 4 -8.5t4 -7.5q4 -8 9 -16q5 -10 9 -16q5 -8 9 -15q2 -3 5.5 -7.5t4.5 -7.5q4 -6 10 -14q9 -11 11 -14
q7 -9 11 -13q2 -2 5.5 -6.5t5.5 -6.5l11 -12q5 -6 11 -11q2 -2 6 -5.5t6 -5.5q4 -4 12 -10q3 -3 12 -10q3 -2 12 -9q2 -1 6.5 -4t6.5 -4q4 -3 12.5 -7.5t13.5 -6.5q7 -4 13 -6q9 -4 13 -5q7 -3 14 -5l14 -4q7 -1 15 -2q7 -2 14 -2q8 -1 16 -1h11h24h24h11q5 0 15 1q9 1 14 2
q5 0 14 2q4 1 13 3.5t13 3.5q8 3 13 5q6 3 13 6q2 0 12 6l12 6t12 7q4 3 12 8q2 2 11 9q3 2 11 9q4 3 11.5 9.5t10.5 9.5q7 8 11 11l4 4.5t6 6.5q3 4 10 12q2 2 5 6t5 6t5 6.5t4 6.5q1 1 4.5 5.5t5.5 7.5l9 13q1 2 8 14q8 12 9 14q4 7 8 14.5t8 14.5l2.5 5t2.5 6t2 4
q2 3 4 8t3 7q1 3 3.5 8l3.5 7l6 16q1 2 3 7t3 8t2.5 8t2.5 7.5t2.5 7.5t2.5 7q3 10 4 15l5 15q1 7 3 14q1 2 2 7t2 7q1 5 3 14t5 26q1 6 4 23q0 4 3 22q0 4 2 18q1 14 1 16q0 4 0.5 8.5t1 8t0.5 5.5zM334 634v0q2 -14 2 -26q-1 -9 -2 -13q-2 -9 -3 -14l-4 -13q-3 -7 -6 -13
q-3 -7 -7 -13q-4 -7 -8 -13l-9 -12q-3 -4 -9 -11q-7 -7 -11 -10q-6 -5 -11 -9q-10 -7 -11 -8l-12 -6q-12 -6 -24 -9q-12 -4 -24 -4q-13 0 -22 3q-11 3 -20 7q-9 5 -16 12q-8 7 -13 15q-7 9 -11 17q-4 11 -6 21q-3 10 -3 21q-1 12 1 24q1 10 5 23q3 9 8 21q4 8 12 20
q5 8 14 18q7 8 17 16q11 8 19 12q10 7 21 10q12 4 22 6q9 2 22 2q12 -1 21 -3q11 -2 20 -7q10 -5 17 -10q8 -7 14 -15q5 -7 10 -18q5 -9 7 -21zM484 341v1q7 -2 12 -5q7 -4 12 -7q12 -7 19 -15q8 -8 15 -18q6 -11 10 -21q3 -10 4 -21q2 -11 0 -23q-2 -13 -6 -22
q-4 -11 -10 -21q-6 -8 -14 -18q-7 -7 -17 -15q-8 -6 -19 -12q-9 -5 -22 -10q-12 -4 -23 -6q-13 -2 -25 -2q-13 0 -25 1.5t-23.5 5t-21.5 9.5q-10 4 -19 12q-10 7 -17 15q-8 8 -14 17q-5 9 -10 20q-4 11 -5 22.5t0 22.5t5 22t11 20.5t16 18.5q10 9 21 16q4 2 12 7q4 2 13 5
q5 2 15 5q7 2 15 4q5 1 15 2q8 1 16 1q6 0 16 -1q8 0 16 -2q9 -1 14 -3t14 -5zM720 578h1q1 -12 0 -23q-1 -12 -3 -22t-6 -19q-6 -12 -10 -18q-6 -8 -13 -14q-7 -8 -15 -12q-9 -4 -19 -7q-10 -2 -22 -2q-11 0 -23 3t-23 9q-12 6 -22 14q-6 5 -11 9l-10 10q0 1 -4 5t-5 6
q-5 7 -9 12q-1 2 -3.5 6.5t-4.5 6.5q-2 3 -7 13q-2 4 -5 13q-3 7 -5 13q-1 5 -3 14q-1 7 -2 13q0 11 1 25q1 11 6 22q4 9 10 17q5 8 14 15q8 6 16 10t19 6q10 2 20 2q13 0 22 -1q13 -3 22 -6q9 -4 20 -10q9 -5 19 -13q8 -6 16 -15q8 -8 14 -17q7 -11 12 -20q5 -12 8 -22
q4 -13 5 -23z"></path></svg>