<?xml version="1.0" encoding="utf-8"?>
<svg xmlns="http://www.w3.org/2000/svg" viewBox="-0.004 0 220 220" width="220px" height="220px">
  <g transform="matrix(1, 0, 0, 1, -723, 0)">
    <g transform="translate(694.94 -21.347)">
      <rect x="28.056" y="21.347" width="220" height="220" fill="none"/>
      <g transform="matrix(.57022 0 0 .57022 -244.19 -51.076)">
        <g>
          <path d="m721.23 147.82c-49.246 23.392-32.796 114.81 68.356 86.918 0.478-0.132 0.99-0.062 1.415 0.193-0.595 6.757-47.997 65.322 29.462 115.29 0 0-78.575 13.715-38.53 99.508 0 0-87.449-35.057-122.95 42.284 0 0-26.408-70.284-105.85-46.69-0.917 0.137 17.656-25.875 3.03-56.713 0 0-18.616 17.094-35.932 10.384 6.967-5.333 16.89-5.588 12.121-35.499-4.503-28.245 10.605-93.553 79.008-102.35l68.401-5.874c-14.452 8.584-57.801-102.48 41.466-107.45z" fill="#3d4789"/>
          <path d="m666.78 252.1c-2.557-3.566-5.076-8.272-7.182-13.796-7.292-19.123-10.112-47.953 4.535-68.768 9.78-13.901 27.324-24.499 56.881-25.979 2.033-0.101 3.854 1.246 4.351 3.22 0.497 1.973-0.468 4.023-2.307 4.896-26.863 12.76-32.226 47.785-12.353 68.286 13.813 14.249 39.393 21.24 77.745 10.665 1.604-0.443 3.319-0.209 4.745 0.648 1.4 0.84 2.198 2.406 2.055 4.033-0.063 0.707-0.333 1.766-0.919 3.101-0.801 1.827-2.328 4.621-4.111 8.21-5.648 11.369-14.17 31.366-7.309 53.722 4.62 15.052 16.207 31.038 39.863 46.299 1.476 0.952 2.218 2.712 1.869 4.433-0.349 1.722-1.718 3.053-3.448 3.355 0 0-26.365 4.543-39.377 25.469-8.799 14.149-11.142 35.634 3.98 68.031 0.74 1.587 0.436 3.465-0.767 4.737-1.204 1.272-3.062 1.68-4.687 1.028 0 0-83.589-33.741-117.48 40.104-0.719 1.565-2.308 2.545-4.029 2.484s-3.237-1.151-3.843-2.763c0 0-12.256-32.595-45.4-44.495-14.316-5.141-32.501-6.36-55.24 0.394-0.19 0.057-0.385 0.1-0.582 0.129-1.348 0.203-2.365-0.197-3.148-0.761-0.788-0.567-1.484-1.409-1.719-2.742-0.057-0.326-0.209-1.589 0.68-3.355 1.928-3.833 13.382-23.537 4.808-47.262-3.067 2.174-7.444 4.87-12.505 6.802-6.99 2.668-15.213 3.84-23.192 0.748-1.439-0.557-2.464-1.848-2.682-3.375s0.405-3.053 1.63-3.991c1.497-1.146 3.114-2.082 4.713-3.09 1.714-1.081 3.441-2.235 4.711-4.294 2.456-3.983 3.203-10.726 1.078-24.056-4.716-29.582 11.034-98.039 82.677-107.26 0.059-8e-3 0.119-0.014 0.179-0.019l55.784-4.791zm9.966 3.427-65.385 5.615c-68.403 8.801-83.511 74.109-79.008 102.35 4.769 29.911-5.154 30.166-12.121 35.499 17.316 6.71 35.932-10.384 35.932-10.384 14.626 30.838-3.947 56.85-3.03 56.713 79.44-23.594 105.85 46.69 105.85 46.69 35.5-77.341 122.95-42.284 122.95-42.284-40.045-85.793 38.53-99.508 38.53-99.508-77.459-49.97-30.057-108.54-29.462-115.29-0.425-0.255-0.937-0.325-1.415-0.193-101.15 27.893-117.6-63.526-68.356-86.918-93.043 4.659-60.793 102.52-44.482 107.71zm0 0 3.016-0.259c-0.906 0.538-1.926 0.606-3.016 0.259z"/>
          <path d="m721.23 147.82c-49.246 23.392-32.796 114.81 68.356 86.918 0.478-0.132 0.99-0.062 1.415 0.193-0.595 6.757-47.997 65.322 29.462 115.29 0 0-78.575 13.715-38.53 99.508 0 0-87.449-35.057-122.95 42.284 0 0-26.408-70.284-105.85-46.69-0.917 0.137 17.656-25.875 3.03-56.713 0 0-18.616 17.094-35.932 10.384 6.967-5.333 16.89-5.588 12.121-35.499-4.503-28.245 10.605-93.553 79.008-102.35l68.401-5.874c-14.452 8.584-57.801-102.48 41.466-107.45z" fill="none"/>
          <clipPath id="c">
            <path d="m721.23 147.82c-49.246 23.392-32.796 114.81 68.356 86.918 0.478-0.132 0.99-0.062 1.415 0.193-0.595 6.757-47.997 65.322 29.462 115.29 0 0-78.575 13.715-38.53 99.508 0 0-87.449-35.057-122.95 42.284 0 0-26.408-70.284-105.85-46.69-0.917 0.137 17.656-25.875 3.03-56.713 0 0-18.616 17.094-35.932 10.384 6.967-5.333 16.89-5.588 12.121-35.499-4.503-28.245 10.605-93.553 79.008-102.35l68.401-5.874c-14.452 8.584-57.801-102.48 41.466-107.45z"/>
          </clipPath>
          <g clip-path="url(#c)">
            <g transform="translate(354.16)"/>
          </g>
          <path d="m666.78 252.1c-2.557-3.566-5.076-8.272-7.182-13.796-7.292-19.123-10.112-47.953 4.535-68.768 9.78-13.901 27.324-24.499 56.881-25.979 2.033-0.101 3.854 1.246 4.351 3.22 0.497 1.973-0.468 4.023-2.307 4.896-26.863 12.76-32.226 47.785-12.353 68.286 13.813 14.249 39.393 21.24 77.745 10.665 1.604-0.443 3.319-0.209 4.745 0.648 1.4 0.84 2.198 2.406 2.055 4.033-0.063 0.707-0.333 1.766-0.919 3.101-0.801 1.827-2.328 4.621-4.111 8.21-5.648 11.369-14.17 31.366-7.309 53.722 4.62 15.052 16.207 31.038 39.863 46.299 1.476 0.952 2.218 2.712 1.869 4.433-0.349 1.722-1.718 3.053-3.448 3.355 0 0-26.365 4.543-39.377 25.469-8.799 14.149-11.142 35.634 3.98 68.031 0.74 1.587 0.436 3.465-0.767 4.737-1.204 1.272-3.062 1.68-4.687 1.028 0 0-83.589-33.741-117.48 40.104-0.719 1.565-2.308 2.545-4.029 2.484s-3.237-1.151-3.843-2.763c0 0-12.256-32.595-45.4-44.495-14.316-5.141-32.501-6.36-55.24 0.394-0.19 0.057-0.385 0.1-0.582 0.129-1.348 0.203-2.365-0.197-3.148-0.761-0.788-0.567-1.484-1.409-1.719-2.742-0.057-0.326-0.209-1.589 0.68-3.355 1.928-3.833 13.382-23.537 4.808-47.262-3.067 2.174-7.444 4.87-12.505 6.802-6.99 2.668-15.213 3.84-23.192 0.748-1.439-0.557-2.464-1.848-2.682-3.375s0.405-3.053 1.63-3.991c1.497-1.146 3.114-2.082 4.713-3.09 1.714-1.081 3.441-2.235 4.711-4.294 2.456-3.983 3.203-10.726 1.078-24.056-4.716-29.582 11.034-98.039 82.677-107.26 0.059-8e-3 0.119-0.014 0.179-0.019l55.784-4.791zm9.966 3.427-65.385 5.615c-68.403 8.801-83.511 74.109-79.008 102.35 4.769 29.911-5.154 30.166-12.121 35.499 17.316 6.71 35.932-10.384 35.932-10.384 14.626 30.838-3.947 56.85-3.03 56.713 79.44-23.594 105.85 46.69 105.85 46.69 35.5-77.341 122.95-42.284 122.95-42.284-40.045-85.793 38.53-99.508 38.53-99.508-77.459-49.97-30.057-108.54-29.462-115.29-0.425-0.255-0.937-0.325-1.415-0.193-101.15 27.893-117.6-63.526-68.356-86.918-93.043 4.659-60.793 102.52-44.482 107.71zm0 0 3.016-0.259c-0.906 0.538-1.926 0.606-3.016 0.259z"/>
          <path d="M 721.23 147.82 C 671.984 171.212 688.434 262.63 789.586 234.738 C 790.064 234.606 790.576 234.676 791.001 234.931 C 790.406 241.688 743.004 300.253 820.463 350.221 C 820.463 350.221 741.888 363.936 781.933 449.729 C 781.933 449.729 694.484 414.672 658.983 492.013 C 658.983 492.013 632.575 421.729 553.133 445.323 C 552.216 445.46 570.789 419.448 556.163 388.61 C 556.163 388.61 537.547 405.704 520.231 398.994 C 527.198 393.661 537.121 393.406 532.352 363.495 C 527.849 335.25 542.957 269.942 611.36 261.145 L 679.761 255.271 C 665.309 263.855 621.96 152.791 721.227 147.821 L 721.23 147.82 Z" fill="none" stroke="#000" stroke-width="12"/>
          <g transform="matrix(1.0544 0 0 1.0596 337.48 -14.364)"/>
          <g transform="translate(354.54)">
            <circle cx="309.25" cy="331.62" r="90.632" fill="#94d7df" stroke="#000" stroke-width="2.67px"/>
          </g>
          <g transform="translate(354.54)"/>
          <g transform="translate(354.54)"/>
          <g transform="matrix(1.0664 0 0 1 -44.927 0)">
            <path d="m664.6 259.2c2.781 0.97 18.464 6.972 35.472 24.241 0 0-22.656 22.916 21.501 48.184 0 0-42.426 22.67-21.357 48.501 0 0-9.907 12.12-35.832 25.107v3e-3l-2e-3 -1e-3 -2e-3 1e-3v-3e-3c-25.925-12.987-35.832-25.107-35.832-25.107 21.069-25.831-21.357-48.501-21.357-48.501 44.157-25.268 21.501-48.184 21.501-48.184 17.008-17.269 32.691-23.271 35.472-24.241v-0.147s0.074 0.023 0.218 0.072c0.144-0.049 0.218-0.072 0.218-0.072v0.147z" fill="#e08bbe"/>
            <path d="m664.6 259.2c2.781 0.97 18.464 6.972 35.472 24.241 0 0-22.656 22.916 21.501 48.184 0 0-42.426 22.67-21.357 48.501 0 0-9.907 12.12-35.832 25.107v3e-3l-2e-3 -1e-3 -2e-3 1e-3v-3e-3c-25.925-12.987-35.832-25.107-35.832-25.107 21.069-25.831-21.357-48.501-21.357-48.501 44.157-25.268 21.501-48.184 21.501-48.184 17.008-17.269 32.691-23.271 35.472-24.241v-0.147s0.074 0.023 0.218 0.072c0.144-0.049 0.218-0.072 0.218-0.072v0.147zm-0.218 2.737c-3.692 1.37-17.258 7.098-32.232 21.711 2.495 3.498 6.538 11.038 4.102 20.787-1.96 7.842-8.257 17.377-23.966 27.199 5.241 3.379 14.438 10.114 19.918 18.768 5.382 8.5 7.4 18.743-0.307 29.557 3.482 3.557 13.425 12.629 32.485 22.325 19.057-9.695 29.002-18.766 32.485-22.325-7.707-10.814-5.689-21.057-0.307-29.557 5.48-8.654 14.677-15.389 19.918-18.768-15.709-9.822-22.006-19.357-23.966-27.199-2.436-9.749 1.607-17.289 4.102-20.787-14.975-14.613-28.54-20.341-32.232-21.711z" fill="black" stroke="black" stroke-width="4" stroke-linejoin="round" stroke-linecap="round"/>
          </g>
          <g transform="matrix(.8408 0 0 1 403.05 0)">
            <ellipse cx="309.85" cy="330.33" rx="11.802" ry="45.624" fill="#303769" stroke="#000" stroke-width="2.53px"/>
          </g>
          <g transform="matrix(.50615 0 0 .76834 506.74 73.47)"/>
          <g transform="translate(354.54)">
            <clipPath id="a">
              <circle cx="309.25" cy="331.62" r="90.632"/>
            </clipPath>
            <g clip-path="url(#a)">
              <g transform="matrix(1.7537 -0 -0 1.7537 122.89 127.01)"/>
            </g>
          </g>
          <g transform="matrix(1.0664 0 0 1 -44.927 0)"/>
          <g transform="matrix(1.0664 0 0 1 -44.927 0)"/>
          <g transform="translate(354.54)">
            <circle cx="309.25" cy="331.62" r="90.632" fill="none" stroke="#000" stroke-width="10"/>
          </g>
          <g transform="matrix(1.0664 0 0 1 -44.927 0)" stroke-width="3">
            <path d="M 664.6 259.2 C 667.381 260.17 683.064 266.172 700.072 283.441 C 700.072 283.441 677.416 306.357 721.573 331.625 C 721.573 331.625 679.147 354.295 700.216 380.126 C 700.216 380.126 690.309 392.246 664.384 405.233 L 664.384 405.236 L 664.382 405.235 L 664.38 405.236 L 664.38 405.233 C 638.455 392.246 628.548 380.126 628.548 380.126 C 649.617 354.295 607.191 331.625 607.191 331.625 C 651.348 306.357 628.692 283.441 628.692 283.441 C 645.7 266.172 661.383 260.17 664.164 259.2 L 664.164 259.053 C 664.164 259.053 664.238 259.076 664.382 259.125 C 664.526 259.076 664.6 259.053 664.6 259.053 L 664.6 259.2 L 664.6 259.2 Z M 664.382 261.937 C 660.69 263.307 647.124 269.035 632.15 283.648 C 634.645 287.146 638.688 294.686 636.252 304.435 C 634.292 312.277 627.995 321.812 612.286 331.634 C 617.527 335.013 626.724 341.748 632.204 350.402 C 637.586 358.902 639.604 369.145 631.897 379.959 C 635.379 383.516 645.322 392.588 664.382 402.284 C 683.439 392.589 693.384 383.518 696.867 379.959 C 689.16 369.145 691.178 358.902 696.56 350.402 C 702.04 341.748 711.237 335.013 716.478 331.634 C 700.769 321.812 694.472 312.277 692.512 304.435 C 690.797 297.573 692.293 291.806 694.198 287.772 C 695 286.074 695.875 284.684 696.614 283.648 C 681.639 269.035 668.074 263.307 664.382 261.937 Z"/>
          </g>
          <g transform="matrix(.8408 0 0 1 403.05 0)">
            <ellipse cx="309.85" cy="330.33" rx="11.802" ry="45.624" fill="none" stroke="#000" stroke-width="6"/>
          </g>
        </g>
      </g>
    </g>
  </g>
</svg>
