<svg xmlns="http://www.w3.org/2000/svg" version="1.1" viewBox="-10 -30 788 920" width="32" height="32">
  <path fill="rgba(26, 121, 76, 1)" stroke="black" stroke-width="65" stroke-linejoin="round" paint-order="stroke" d="M766 165v0q2 30 1 53q-26 -3 -32 4q-6 6 3 15t24 18q-4 31 -24 52.5t-49 17.5q13 24 19 35q5 10 16 35q11 23 14 36t6 35q3 20 -1 35q-5 14 -15 31q-5 10 -28 31q-4 3 -13 23q-7 14 -11 27q-5 12 -13 26t-15 22q-9 7 -22 12q-14 5 -29 -2q-16 -8 0 11l17 17
q-19 24 -44 48q-9 -2 -17 1.5t-11 7.5q-3 3 -9 14q-6 10 -7 12q-2 0 -6 2q-5 2 -7 4q-3 1 -6 4q-4 2 -5 6q2 4 0 7q-47 48 -109 51q-58 2 -110 -46q6 -16 8 -22q1 -8 -3 -8q-4 -1 -11 1l-16 2q-9 1 -19 -2q-6 -2 -19 -13q-6 -5 -12 -11q-9 -10 -11 -12l-4 -5q-1 -1 -1 -13
q-1 -8 -1 -10q-2 -2 -2 -5q-1 -3 -5 -4q-4 -2 -8 -3q-4 -2 -15 -4q-53 -61 -95 -151q-60 -46 -34 -103q0 1 33 -3q12 -1 3 -7q-8 -4 -14 -11q-5 -7 -7 -13l-2 -5q15 -39 40 -83q-33 -5 -52 -25t-25 -46t-4 -62q1 -37 6 -66q5 -30 12 -66q7 -38 9 -54q19 41 36 71
q-23 22 -19 26q3 3 32 -5q7 12 18 26q-5 6 -24 18q-9 5 -1 9q15 7 44 -5q31 34 58 48q3 -3 11 -9q24 -19 37 -29t39 -26q25 -17 42 -24q17 -9 42 -16q24 -9 44 -8t43 8q23 6 44 22q2 15 16 25t25 7v39l38 -19q12 13 24.5 18.5t24.5 2.5q12 -4 24 -11q12 -8 24 -22
q11 -15 21 -28q10 -14 20 -33q11 -19 18 -32t15 -29q8 -17 12 -24q19 90 24 159zM553 431q-67 14 -65 42q2 21 38 34q46 15 91 -5q47 -22 25 -48q-19 -23 -59 -26q-13 -1 -30 3zM239 205q1 17 18 29q17 10 38 20t27 21q16 6 38 23q23 17 43 34q20 16 41 29q22 13 43 13
q21 -1 39 -19q10 -16 11 -28q2 -13 -3 -20q-5 -9 -16 -14q-11 -7 -23 -10q-11 -4 -26 -6q-30 -29 -70 -42q-41 -14 -100 -23q-37 -22 -60 -7zM199 510q58 7 81 -20q17 -21 -7 -41q-18 -15 -62 -19q-48 -4 -70 13q-23 18 -7 41q14 19 65 26zM520 714v0q5 -11 2 -18
q-3 -8 -6 -12q-3 -5 -12 -8q-8 -4 -15 -5q-7 -2 -16.5 -4t-14.5 -4q-9 -4 -28 -12q-19 -9 -30 -13q-12 -5 -28 -9q-17 -5 -32 -5q-113 -59 -114 -36q-2 17 49 56q61 45 112 56q18 25 43 41q24 15 50 11q26 -5 40 -38zM650 585v-1q3 -15 -7 -26q-9 -12 -25 -17q-24 9 -56 9
q-32 -1 -60 -9q-29 -10 -44 -33t-5 -55q-9 -2 -131 -61q-201 -98 -204 -62q-1 7 3 13q11 13 45 26q29 11 58 19q27 7 53 19q26 10 40 31t10 53q21 18 57 31q35 12 69 25q38 14 55 34q18 21 38 37q19 15 40 23t38 -6t26 -50z"/>
</svg>
