<svg xmlns="http://www.w3.org/2000/svg" version="1.1" viewBox="0 -70 900 1000">
   <path fill="#5A5145"
d="M439 -71q1 6 3 15.5t9 38t14 54.5t17 58t19.5 56t20 41.5t19.5 19.5q22 6 165 -32q-9 5 -29.5 40.5t-32.5 71.5t0 41q23 8 63.5 8.5t170.5 -10.5q-28 13 -54.5 27t-63 36t-53 43.5t-3.5 35.5q94 105 129 173q-7 -12 -55.5 -34.5t-102.5 -37.5t-71 -4q-13 8 -22.5 18.5
t-20.5 37t-14.5 62.5t0.5 98.5t19 142.5q-22 -24 -43 -55t-37 -61.5t-30.5 -61.5t-25.5 -57t-20.5 -47t-17 -32t-12.5 -10q-24 3 -68.5 31.5t-76.5 55.5l-32 27l38 -84q50 -121 20 -137q-20 -10 -82.5 -14.5t-116.5 -3.5l-53 1q183 -85 210 -110q35 -31 -37 -153
q136 59 159 13q10 -19 34.5 -94.5t43.5 -141.5z" />
</svg>
