<?xml version="1.0" standalone="no"?>
<svg xmlns="http://www.w3.org/2000/svg" version="1.1" viewBox="-10 0 842 870">
   <path fill="#5A5145"
d="M431 795q36 0 69.5 -10.5t58 -27.5t45.5 -37t34.5 -40t23 -36.5t13.5 -26.5l5 -11q-1 6 -3 15t-11 35t-21.5 50t-36 53t-52 50t-72 35t-94.5 13q-16 0 -41 -4t-59.5 -13.5t-68.5 -23t-66.5 -35.5t-56 -48t-34.5 -62.5t-4 -77.5q-20 26 -27 69q-16 -46 -18.5 -95.5
t4.5 -87.5t16.5 -69t17.5 -48l8 -17q-11 -2 -49 17q10 -31 26 -59.5t31.5 -46.5t29.5 -31.5t22 -19.5l9 -6q58 11 94 11q-60 -17 -101.5 -76t-39.5 -127q35 63 98.5 95.5t162.5 36.5q30 1 54 -7t36 -18.5t25.5 -19t25.5 -7.5q34 67 52 89q26 13 116 2t124 -27q45 121 44 145
q-1 4 -12 21.5t-28.5 43.5t-26.5 40q-7 13 -7 14q-1 -2 -7.5 -16t-11 -22t-17 -20t-28.5 -20q-28 -13 -66 -16.5t-64 5.5q-47 14 -45 69q1 7 3 14t5 12t8 9.5t8.5 7.5t10.5 6.5l10 5t10 4t8 3.5q129 54 198 -10q2 22 -38 84q-34 46 -104 75q-1 -8 -17.5 -30.5t-41 -48.5
t-57.5 -48t-61 -25q-35 -5 -76 6t-67.5 30t-22.5 37q-6 -20 -3 -35.5t9 -25.5l7 -9q-3 0 -7.5 2t-16.5 10.5t-22 20.5t-18.5 36t-10.5 55q-8 142 118 194q50 20 91 20z" />
</svg>
